<svg xmlns="http://www.w3.org/2000/svg" xmlns:xlink="http://www.w3.org/1999/xlink" width="60px" height="80px">
    <path fill-rule="evenodd" fill="rgb(147, 118, 223)"
        d="M44.312,45.694 L46.404,49.428 L49.386,47.739 L59.999,66.677 L57.018,68.367 L59.990,73.670 L48.811,80.007 L45.839,74.704 L42.858,76.394 L32.244,57.455 L35.225,55.765 L33.132,52.031 C27.777,53.473 22.017,53.141 16.797,51.073 C11.169,48.843 6.424,44.678 3.436,39.347 C-3.704,26.606 0.684,10.461 13.219,3.356 C25.753,-3.749 41.759,0.835 48.899,13.576 C51.887,18.908 52.973,25.147 51.955,31.144 C51.011,36.705 48.311,41.833 44.312,45.694 ZM49.773,76.467 L56.481,72.665 L54.783,69.634 L48.075,73.437 L49.773,76.467 ZM43.820,72.854 L56.490,65.672 L48.423,51.279 L35.753,58.460 L43.820,72.854 ZM46.663,14.843 C40.226,3.356 25.794,-0.777 14.492,5.629 C3.191,12.035 -0.766,26.592 5.672,38.079 C8.366,42.886 12.644,46.641 17.717,48.651 C22.721,50.634 28.274,50.847 33.353,49.252 L34.347,48.940 L37.461,54.498 L44.169,50.696 L41.054,45.138 L41.834,44.445 C45.821,40.901 48.514,36.012 49.419,30.681 C50.336,25.275 49.357,19.651 46.663,14.843 ZM35.720,43.506 C26.474,48.748 14.666,45.366 9.398,35.967 C4.131,26.568 7.369,14.658 16.615,9.416 C25.861,4.175 37.669,7.557 42.937,16.956 C48.204,26.355 44.967,38.265 35.720,43.506 ZM40.701,18.223 C36.136,10.078 25.902,7.147 17.889,11.689 C9.875,16.231 7.069,26.554 11.634,34.699 C16.199,42.845 26.433,45.776 34.446,41.233 C42.460,36.691 45.266,26.369 40.701,18.223 ZM32.748,38.203 C26.378,41.814 18.244,39.484 14.615,33.010 C10.987,26.535 13.217,18.330 19.587,14.719 C25.957,11.108 34.091,13.439 37.720,19.913 C41.348,26.388 39.118,34.593 32.748,38.203 ZM22.018,16.429 L26.649,24.691 L34.777,20.084 C31.849,16.058 26.553,14.541 22.018,16.429 ZM36.051,22.356 L25.687,28.231 L19.782,17.696 C15.487,20.874 14.141,26.906 16.851,31.742 C19.778,36.963 26.338,38.842 31.474,35.931 C36.233,33.233 38.124,27.358 36.051,22.356 ZM26.587,30.715 L29.568,29.025 L30.842,31.298 L27.861,32.988 L26.587,30.715 ZM19.568,28.705 L22.549,27.015 L23.823,29.288 L20.842,30.978 L19.568,28.705 ZM41.334,62.285 L40.060,60.012 L47.513,55.787 L48.787,58.060 L41.334,62.285 ZM52.183,64.120 L44.730,68.345 L43.457,66.072 L50.910,61.848 L52.183,64.120 Z" />
</svg>