<svg xmlns="http://www.w3.org/2000/svg" xmlns:xlink="http://www.w3.org/1999/xlink" width="69px" height="48px">
    <path fill-rule="evenodd" fill="rgb(147, 118, 223)"
        d="M65.490,35.674 L57.898,38.728 L57.898,42.410 C57.898,45.491 55.399,48.000 52.330,48.000 L5.569,48.000 C2.499,48.000 0.000,45.491 0.000,42.410 L0.000,15.589 C0.000,12.508 2.499,9.999 5.569,9.999 L27.530,9.999 L51.406,0.400 C55.535,-1.086 58.224,1.913 58.645,3.509 L68.587,28.406 C69.252,29.824 69.619,33.806 65.490,35.674 ZM2.227,42.423 C2.227,44.278 3.721,45.777 5.569,45.777 L52.330,45.777 C54.163,45.777 55.671,44.264 55.671,42.423 L55.671,25.652 L2.227,25.652 L2.227,42.423 ZM2.227,23.416 L55.671,23.416 L55.671,18.943 L2.227,18.943 L2.227,23.416 ZM5.569,12.235 C3.721,12.235 2.227,13.735 2.227,15.589 L2.227,16.707 L55.671,16.707 L55.671,15.589 C55.671,13.735 54.177,12.235 52.330,12.235 L5.569,12.235 ZM66.522,29.238 L56.581,4.340 C56.173,3.290 54.679,1.586 52.235,2.472 L33.519,9.999 L52.330,9.999 C55.399,9.999 57.898,12.508 57.898,15.589 L57.898,36.315 L64.662,33.601 C65.477,33.274 67.378,31.788 66.522,29.238 ZM47.875,43.541 C47.087,43.541 46.327,43.323 45.648,42.928 C44.969,43.323 44.208,43.541 43.420,43.541 C40.962,43.541 38.966,41.537 38.966,39.069 C38.966,36.601 40.962,34.597 43.420,34.597 C44.208,34.597 44.969,34.815 45.648,35.210 C46.327,34.815 47.087,34.597 47.875,34.597 C50.333,34.597 52.330,36.601 52.330,39.069 C52.330,41.537 50.333,43.541 47.875,43.541 ZM47.875,36.833 C46.680,36.833 45.648,38.087 45.648,38.087 C45.648,38.087 44.629,36.833 43.420,36.833 C42.198,36.833 41.193,37.842 41.193,39.069 C41.193,40.296 42.198,41.305 43.420,41.305 C44.643,41.305 45.648,40.051 45.648,40.051 C45.648,40.051 46.612,41.305 47.875,41.305 C49.097,41.305 50.102,40.296 50.102,39.069 C50.102,37.842 49.097,36.833 47.875,36.833 ZM5.569,39.069 L27.842,39.069 L27.842,41.305 L5.569,41.305 L5.569,39.069 ZM5.569,31.242 L20.047,31.242 L20.047,33.478 L5.569,33.478 L5.569,31.242 Z" />
</svg>