<svg xmlns="http://www.w3.org/2000/svg" xmlns:xlink="http://www.w3.org/1999/xlink" width="84px" height="88px">
    <path fill-rule="evenodd" fill="rgb(147, 118, 223)"
        d="M56.275,76.908 L56.275,80.605 L50.749,80.605 L50.749,88.000 L33.251,88.000 L33.251,80.605 L27.725,80.605 L27.725,76.908 L0.000,76.908 L27.725,28.932 L27.725,21.491 L42.000,-0.000 L56.275,21.491 L56.275,28.932 L84.000,76.908 L56.275,76.908 ZM36.014,85.227 L47.986,85.227 L47.986,80.605 L36.014,80.605 L36.014,85.227 ZM27.725,34.459 L9.604,65.816 L27.725,65.816 L27.725,34.459 ZM27.725,68.589 L8.002,68.589 L4.797,74.135 L27.725,74.135 L27.725,68.589 ZM42.000,4.999 L31.688,20.524 L52.312,20.524 L42.000,4.999 ZM53.512,23.297 L30.488,23.297 L30.488,77.832 L53.512,77.832 L53.512,23.297 ZM56.275,34.459 L56.275,65.816 L74.396,65.816 L56.275,34.459 ZM56.275,68.589 L56.275,74.135 L79.203,74.135 L75.998,68.589 L56.275,68.589 ZM42.000,28.843 C46.316,28.843 49.828,32.367 49.828,36.700 C49.828,41.032 46.316,44.557 42.000,44.557 C37.683,44.557 34.172,41.032 34.172,36.700 C34.172,32.367 37.683,28.843 42.000,28.843 ZM42.000,41.784 C44.793,41.784 47.065,39.503 47.065,36.700 C47.065,33.896 44.793,31.616 42.000,31.616 C39.207,31.616 36.935,33.896 36.935,36.700 C36.935,39.503 39.207,41.784 42.000,41.784 ZM49.368,52.875 L34.632,52.875 L34.632,50.102 L49.368,50.102 L49.368,52.875 ZM49.368,60.270 L34.632,60.270 L34.632,57.497 L49.368,57.497 L49.368,60.270 ZM38.316,67.665 L34.632,67.665 L34.632,64.892 L38.316,64.892 L38.316,67.665 ZM43.842,67.665 L40.158,67.665 L40.158,64.892 L43.842,64.892 L43.842,67.665 ZM49.368,67.665 L45.684,67.665 L45.684,64.892 L49.368,64.892 L49.368,67.665 Z" />
</svg>