<svg xmlns="http://www.w3.org/2000/svg" xmlns:xlink="http://www.w3.org/1999/xlink" width="63px" height="63px">
    <path fill-rule="evenodd" fill="rgb(147, 118, 223)"
        d="M60.703,63.000 L2.297,63.000 C1.031,63.000 0.000,61.980 0.000,60.727 L0.000,2.273 C0.000,1.020 1.031,0.000 2.297,0.000 L60.703,0.000 C61.970,0.000 63.000,1.020 63.000,2.273 L63.000,60.727 C63.000,61.980 61.969,63.000 60.703,63.000 ZM61.031,60.727 L61.031,2.273 C61.031,2.097 60.881,1.949 60.703,1.949 L2.297,1.949 C2.119,1.949 1.969,2.097 1.969,2.273 L1.969,60.727 C1.969,60.903 2.119,61.052 2.297,61.052 L60.703,61.052 C60.881,61.052 61.031,60.903 61.031,60.727 L61.031,60.727 ZM55.453,49.361 L58.078,49.361 L58.078,51.310 L55.453,51.310 L55.453,49.361 ZM36.094,33.124 L45.937,33.124 L45.937,25.979 L17.063,25.979 L17.063,33.124 L26.906,33.124 L26.906,44.165 L5.250,44.165 L5.250,33.124 L15.094,33.124 L15.094,24.031 L30.844,24.031 L30.844,16.886 L21.000,16.886 L21.000,5.845 L42.656,5.845 L42.656,16.886 L32.813,16.886 L32.813,24.031 L47.906,24.031 L47.906,33.124 L57.750,33.124 L57.750,44.165 L36.094,44.165 L36.094,33.124 ZM7.219,35.072 L7.219,42.216 L24.937,42.216 L24.937,35.072 L7.219,35.072 ZM40.687,14.938 L40.687,7.794 L22.969,7.794 L22.969,14.938 L40.687,14.938 ZM38.063,42.216 L55.781,42.216 L55.781,42.216 L55.781,35.072 L38.063,35.072 L38.063,42.216 ZM40.359,37.670 L53.484,37.670 L53.484,39.618 L40.359,39.618 L40.359,37.670 ZM38.391,12.340 L25.266,12.340 L25.266,10.392 L38.391,10.392 L38.391,12.340 ZM9.516,37.670 L22.641,37.670 L22.641,39.618 L9.516,39.618 L9.516,37.670 ZM55.781,8.443 L51.516,8.443 L51.516,6.495 L57.750,6.495 L57.750,12.665 L55.781,12.665 L55.781,8.443 ZM7.219,12.665 L5.250,12.665 L5.250,6.495 L11.484,6.495 L11.484,8.443 L7.219,8.443 L7.219,12.665 ZM24.609,51.310 L4.922,51.310 L4.922,49.361 L24.609,49.361 L24.609,51.310 ZM29.859,49.361 L29.859,51.310 L27.234,51.310 L27.234,49.361 L29.859,49.361 ZM35.109,49.361 L35.109,51.310 L32.484,51.310 L32.484,49.361 L35.109,49.361 ZM52.828,49.361 L52.828,51.310 L50.203,51.310 L50.203,49.361 L52.828,49.361 ZM53.484,56.505 L4.922,56.505 L4.922,54.556 L53.484,54.556 L53.484,56.505 Z" />
</svg>