<svg xmlns="http://www.w3.org/2000/svg" xmlns:xlink="http://www.w3.org/1999/xlink" width="70px" height="70px">
    <path fill-rule="evenodd" fill="rgb(147, 118, 223)"
        d="M59.749,59.749 C53.139,66.360 44.350,70.000 35.000,70.000 C25.650,70.000 16.861,66.360 10.251,59.749 C3.640,53.139 -0.000,44.349 -0.000,35.000 C-0.000,25.650 3.641,16.861 10.251,10.251 C16.861,3.641 25.650,0.000 35.000,0.000 C44.350,0.000 53.139,3.641 59.749,10.251 C66.360,16.861 70.000,25.650 70.000,35.000 C70.000,44.349 66.360,53.139 59.749,59.749 ZM58.219,11.781 C52.017,5.580 43.771,2.165 35.000,2.165 C26.228,2.165 17.982,5.580 11.781,11.781 C5.580,17.982 2.165,26.229 2.165,35.000 C2.165,43.771 5.580,52.017 11.781,58.219 C17.983,64.420 26.228,67.835 35.000,67.835 C43.771,67.835 52.017,64.420 58.219,58.219 C64.420,52.017 67.835,43.772 67.835,35.000 C67.835,26.228 64.420,17.982 58.219,11.781 ZM62.062,28.144 L62.062,41.856 L55.903,41.856 C55.544,42.949 55.119,43.980 54.634,44.934 L58.989,49.289 L49.289,58.988 L44.934,54.634 C43.980,55.119 42.949,55.543 41.856,55.902 L41.856,62.062 L28.144,62.062 L28.144,55.903 C27.051,55.544 26.020,55.119 25.066,54.634 L20.711,58.989 L11.011,49.289 L15.366,44.934 C14.881,43.980 14.457,42.949 14.098,41.856 L7.938,41.856 L7.938,28.144 L14.097,28.144 C14.456,27.051 14.881,26.020 15.366,25.066 L11.011,20.711 L20.711,11.011 L25.066,15.366 C26.020,14.881 27.051,14.456 28.144,14.098 L28.144,7.938 L41.856,7.938 L41.856,14.097 C42.949,14.456 43.980,14.881 44.934,15.366 L49.289,11.011 L58.989,20.711 L54.634,25.066 C55.119,26.020 55.543,27.051 55.903,28.144 L62.062,28.144 ZM55.927,20.711 L49.289,14.073 L45.316,18.046 L44.600,17.642 C43.378,16.952 41.988,16.378 40.469,15.934 L39.691,15.706 L39.691,10.103 L30.309,10.103 L30.309,15.706 L29.531,15.934 C28.012,16.378 26.622,16.952 25.400,17.642 L24.684,18.046 L20.712,14.073 L14.073,20.711 L18.046,24.684 L17.642,25.400 C16.953,26.622 16.378,28.012 15.934,29.531 L15.706,30.309 L10.103,30.309 L10.103,39.690 L15.706,39.690 L15.934,40.469 C16.378,41.988 16.952,43.377 17.642,44.600 L18.045,45.316 L14.073,49.288 L20.711,55.927 L24.684,51.954 L25.400,52.358 C26.622,53.047 28.012,53.622 29.531,54.066 L30.309,54.294 L30.309,59.897 L39.691,59.897 L39.691,54.294 L40.469,54.066 C41.988,53.622 43.378,53.047 44.600,52.358 L45.316,51.954 L49.288,55.927 L55.927,49.288 L51.954,45.316 L52.358,44.600 C53.047,43.377 53.622,41.988 54.066,40.469 L54.294,39.690 L59.897,39.690 L59.897,39.690 L59.897,30.310 L54.294,30.310 L54.066,29.531 C53.622,28.012 53.048,26.623 52.358,25.400 L51.954,24.684 L55.927,20.711 ZM35.000,20.928 C27.240,20.928 20.928,27.241 20.928,35.000 C20.928,42.760 27.240,49.072 35.000,49.072 L35.000,51.237 C26.047,51.237 18.763,43.953 18.763,35.000 C18.763,26.047 26.047,18.763 35.000,18.763 C43.953,18.763 51.237,26.047 51.237,35.000 L49.072,35.000 C49.072,27.241 42.759,20.928 35.000,20.928 ZM25.979,35.000 C25.979,30.026 30.026,25.980 35.000,25.980 C39.974,25.980 44.021,30.026 44.021,35.000 C44.021,39.974 39.974,44.020 35.000,44.020 C30.026,44.020 25.979,39.974 25.979,35.000 ZM33.917,28.231 C31.003,28.695 28.695,31.003 28.231,33.917 L33.917,33.917 L33.917,28.231 ZM36.083,28.231 L36.083,33.917 L41.769,33.917 C41.305,31.003 38.997,28.695 36.083,28.231 ZM41.769,36.082 L28.231,36.082 C28.751,39.350 31.588,41.856 35.000,41.856 C38.412,41.856 41.249,39.350 41.769,36.082 Z" />
</svg>