<svg xmlns="http://www.w3.org/2000/svg" xmlns:xlink="http://www.w3.org/1999/xlink" width="59px" height="53px">
    <path fill-rule="evenodd" fill="rgb(147, 118, 223)"
        d="M53.591,37.437 C49.306,46.914 39.922,53.000 29.500,53.000 C19.079,53.000 9.695,46.913 5.409,37.438 C2.360,37.031 0.000,34.409 0.000,31.244 L0.000,21.754 C0.000,18.589 2.360,15.968 5.408,15.561 C9.767,5.927 19.370,-0.173 29.937,0.002 C40.124,0.171 49.381,6.270 53.589,15.560 C56.638,15.966 59.000,18.588 59.000,21.754 L59.000,31.244 C59.000,34.409 56.640,37.031 53.591,37.437 ZM29.500,50.745 C38.668,50.745 46.958,45.597 51.068,37.494 L7.932,37.494 C12.043,45.597 20.332,50.745 29.500,50.745 ZM29.900,2.257 C20.598,2.103 12.113,7.263 7.931,15.504 L51.066,15.504 C47.024,7.562 38.854,2.406 29.900,2.257 ZM56.750,21.754 C56.750,19.551 54.962,17.759 52.764,17.759 L6.236,17.759 C4.038,17.759 2.250,19.551 2.250,21.754 L2.250,31.244 C2.250,33.447 4.038,35.239 6.236,35.239 L52.764,35.239 C54.962,35.239 56.750,33.447 56.750,31.244 L56.750,21.754 ZM47.634,31.941 L45.840,26.621 L44.028,31.941 L41.221,31.941 L37.906,22.173 L40.714,22.173 L42.616,28.074 L44.518,22.173 L47.145,22.173 L49.047,28.074 L50.949,22.173 L53.775,22.173 L50.460,31.941 L47.634,31.941 ZM31.294,31.941 L29.501,26.621 L27.688,31.941 L24.881,31.941 L21.566,22.173 L24.374,22.173 L26.276,28.074 L28.179,22.173 L30.805,22.173 L32.707,28.074 L34.609,22.173 L37.435,22.173 L34.120,31.941 L31.294,31.941 ZM14.954,31.941 L13.161,26.621 L11.349,31.941 L8.541,31.941 L5.226,22.173 L8.035,22.173 L9.937,28.074 L11.839,22.173 L14.465,22.173 L16.367,28.074 L18.269,22.173 L21.095,22.173 L17.780,31.941 L14.954,31.941 Z" />
</svg>