<svg xmlns="http://www.w3.org/2000/svg" xmlns:xlink="http://www.w3.org/1999/xlink" width="52px" height="52px">
    <path fill-rule="evenodd" fill="rgb(147, 118, 223)"
        d="M35.434,41.483 L41.091,50.843 L39.202,52.000 L32.845,41.483 L27.114,41.483 L27.114,48.509 L24.896,48.509 L24.896,41.483 L19.113,41.483 L12.788,51.947 L10.899,50.790 L16.523,41.483 L0.000,41.483 L0.000,-0.000 L52.000,-0.000 L52.000,41.483 L35.434,41.483 ZM49.899,2.229 L2.218,2.229 L2.218,39.361 L49.899,39.361 L49.899,2.229 ZM17.489,19.176 L17.489,34.224 L7.970,34.224 L7.970,19.176 L17.478,19.176 L17.489,19.176 ZM15.271,21.299 L10.177,21.299 L10.177,32.007 L15.271,32.007 L15.271,21.299 ZM30.754,34.235 L21.235,34.235 L21.235,8.808 L30.754,8.808 L30.754,34.235 ZM28.547,11.037 L23.453,11.037 L23.453,32.007 L28.547,32.007 L28.547,11.037 ZM44.030,34.235 L34.511,34.235 L34.511,14.496 L44.030,14.496 L44.030,34.235 ZM41.823,16.725 L36.729,16.725 L36.729,32.007 L41.823,32.007 L41.823,16.725 Z" />
</svg>