<svg xmlns="http://www.w3.org/2000/svg" xmlns:xlink="http://www.w3.org/1999/xlink" width="63px" height="63px">
    <path fill-rule="evenodd" fill="rgb(147, 118, 223)"
        d="M61.619,28.497 C62.266,29.356 63.000,30.331 63.000,31.500 C63.000,32.669 62.266,33.644 61.619,34.503 C61.189,35.074 60.744,35.664 60.673,36.122 L58.727,35.815 C58.876,34.872 59.471,34.082 60.046,33.319 C60.530,32.675 61.031,32.011 61.031,31.500 C61.031,30.989 60.530,30.325 60.047,29.681 C59.472,28.918 58.876,28.128 58.728,27.184 C58.576,26.214 58.903,25.263 59.220,24.344 C59.477,23.599 59.742,22.828 59.594,22.372 C59.439,21.895 58.761,21.422 58.106,20.963 C57.318,20.413 56.504,19.844 56.066,18.986 C55.623,18.117 55.639,17.116 55.655,16.148 C55.667,15.354 55.681,14.535 55.394,14.140 C55.103,13.742 54.316,13.502 53.556,13.269 C52.633,12.988 51.677,12.696 50.992,12.010 C50.305,11.324 50.014,10.368 49.733,9.445 C49.499,8.683 49.260,7.897 48.861,7.606 C48.467,7.319 47.647,7.334 46.853,7.345 C45.889,7.364 44.884,7.378 44.015,6.935 C43.158,6.497 42.588,5.682 42.038,4.894 C41.579,4.239 41.105,3.561 40.630,3.407 C40.172,3.257 39.403,3.524 38.656,3.781 C37.737,4.098 36.784,4.423 35.816,4.273 C34.872,4.125 34.082,3.530 33.318,2.954 C32.675,2.470 32.011,1.969 31.500,1.969 C30.989,1.969 30.325,2.470 29.683,2.954 C28.919,3.530 28.129,4.125 27.186,4.273 C26.215,4.425 25.265,4.098 24.345,3.781 C23.599,3.525 22.828,3.257 22.373,3.407 C21.897,3.561 21.423,4.239 20.965,4.894 C20.414,5.683 19.845,6.497 18.987,6.935 C18.117,7.378 17.117,7.361 16.149,7.345 C15.356,7.332 14.536,7.319 14.142,7.606 C13.742,7.897 13.503,8.684 13.270,9.445 C12.989,10.368 12.697,11.323 12.011,12.009 C11.325,12.696 10.369,12.987 9.446,13.269 C8.684,13.502 7.898,13.742 7.607,14.140 C7.321,14.535 7.334,15.354 7.346,16.148 C7.363,17.116 7.379,18.117 6.936,18.986 C6.498,19.844 5.683,20.413 4.895,20.963 C4.240,21.422 3.562,21.895 3.407,22.371 C3.258,22.827 3.524,23.599 3.781,24.344 C4.098,25.263 4.426,26.214 4.273,27.184 C4.125,28.128 3.530,28.918 2.954,29.682 C2.470,30.325 1.969,30.989 1.969,31.500 C1.969,32.011 2.470,32.675 2.954,33.318 C3.530,34.082 4.126,34.872 4.273,35.815 L2.328,36.122 C2.256,35.664 1.812,35.073 1.382,34.503 C0.734,33.644 -0.000,32.669 -0.000,31.500 C-0.000,30.331 0.734,29.356 1.383,28.497 C1.813,27.927 2.257,27.337 2.329,26.879 C2.406,26.392 2.159,25.677 1.921,24.985 C1.575,23.982 1.183,22.846 1.535,21.763 C1.894,20.659 2.889,19.963 3.768,19.349 C4.358,18.936 4.968,18.510 5.183,18.090 C5.402,17.658 5.391,16.907 5.379,16.179 C5.361,15.114 5.341,13.907 6.016,12.981 C6.694,12.050 7.850,11.696 8.871,11.385 C9.564,11.174 10.281,10.955 10.619,10.616 C10.957,10.278 11.177,9.562 11.387,8.869 C11.698,7.848 12.052,6.691 12.983,6.014 C13.910,5.338 15.116,5.356 16.181,5.377 C16.907,5.388 17.660,5.401 18.091,5.181 C18.512,4.966 18.938,4.356 19.351,3.766 C19.965,2.887 20.661,1.892 21.764,1.534 C22.846,1.183 23.982,1.574 24.985,1.920 C25.677,2.158 26.394,2.406 26.879,2.328 C27.337,2.256 27.927,1.812 28.497,1.382 C29.356,0.734 30.331,-0.000 31.500,-0.000 C32.669,-0.000 33.644,0.734 34.502,1.382 C35.073,1.811 35.663,2.256 36.121,2.328 C36.606,2.403 37.324,2.158 38.015,1.920 C39.018,1.575 40.156,1.184 41.239,1.536 C42.343,1.894 43.039,2.889 43.652,3.768 C44.065,4.359 44.491,4.969 44.912,5.184 C45.342,5.404 46.095,5.393 46.822,5.380 C47.886,5.361 49.093,5.342 50.019,6.016 C50.951,6.694 51.305,7.851 51.616,8.872 C51.826,9.564 52.045,10.281 52.383,10.619 C52.721,10.957 53.438,11.177 54.130,11.387 C55.151,11.698 56.308,12.052 56.986,12.983 C57.660,13.910 57.640,15.116 57.622,16.181 C57.611,16.908 57.598,17.660 57.818,18.091 C58.034,18.512 58.643,18.938 59.234,19.351 C60.113,19.965 61.109,20.661 61.466,21.764 C61.818,22.847 61.427,23.983 61.080,24.985 C60.842,25.676 60.596,26.392 60.673,26.879 C60.744,27.337 61.189,27.927 61.619,28.497 ZM4.922,36.422 C6.550,36.422 7.875,37.747 7.875,39.375 L7.875,40.359 L5.906,40.359 L5.906,39.375 C5.906,38.831 5.464,38.391 4.922,38.391 C4.379,38.391 3.937,38.831 3.937,39.375 L3.937,45.281 C3.937,45.825 4.379,46.266 4.922,46.266 C5.464,46.266 5.906,45.825 5.906,45.281 L5.906,44.297 L4.922,44.297 L4.922,42.328 L6.891,42.328 C7.434,42.328 7.875,42.768 7.875,43.312 L7.875,45.281 C7.875,46.909 6.550,48.234 4.922,48.234 C3.294,48.234 1.969,46.909 1.969,45.281 L1.969,39.375 C1.969,37.747 3.294,36.422 4.922,36.422 ZM55.125,46.266 L55.125,48.234 L51.187,48.234 C50.643,48.234 50.203,47.794 50.203,47.250 L50.203,37.406 C50.203,36.862 50.643,36.422 51.187,36.422 L55.125,36.422 L55.125,38.391 L52.172,38.391 L52.172,41.344 L55.125,41.344 L55.125,43.312 L52.172,43.312 L52.172,46.266 L55.125,46.266 ZM20.672,22.641 L19.687,22.641 L19.687,20.672 L21.656,20.672 C22.200,20.672 22.641,21.113 22.641,21.656 L22.641,32.484 L20.672,32.484 L20.672,22.641 ZM15.750,39.375 C15.750,37.747 17.075,36.422 18.703,36.422 C20.331,36.422 21.656,37.747 21.656,39.375 L21.656,48.234 L19.687,48.234 L19.687,46.266 L17.719,46.266 L17.719,48.234 L15.750,48.234 L15.750,39.375 ZM17.719,44.297 L19.687,44.297 L19.687,39.375 C19.687,38.831 19.246,38.391 18.703,38.391 C18.161,38.391 17.719,38.831 17.719,39.375 L17.719,44.297 ZM16.473,50.982 L17.676,49.424 C21.671,52.509 26.451,54.141 31.500,54.141 C36.550,54.141 41.329,52.509 45.325,49.424 L46.528,50.982 C42.185,54.336 36.989,56.109 31.500,56.109 C26.011,56.109 20.816,54.336 16.473,50.982 ZM48.234,30.516 L46.266,30.516 L46.266,28.547 L48.234,28.547 L48.234,30.516 ZM47.145,24.065 L43.207,31.940 L41.446,31.060 L45.384,23.185 L47.145,24.065 ZM42.328,26.578 L40.359,26.578 L40.359,24.609 L42.328,24.609 L42.328,26.578 ZM40.359,36.422 L42.328,36.422 L42.328,47.250 C42.328,47.722 41.993,48.128 41.530,48.217 C41.468,48.228 41.405,48.234 41.343,48.234 C40.948,48.234 40.582,47.995 40.429,47.615 L38.391,42.517 L38.391,48.234 L36.422,48.234 L36.422,37.406 C36.422,36.935 36.757,36.528 37.220,36.439 C37.676,36.356 38.145,36.601 38.321,37.041 L40.359,42.139 L40.359,36.422 ZM34.945,20.672 C36.845,20.672 38.391,22.217 38.391,24.117 L38.391,29.039 C38.391,30.939 36.845,32.484 34.945,32.484 C33.045,32.484 31.500,30.939 31.500,29.039 L31.500,24.117 C31.500,22.217 33.045,20.672 34.945,20.672 ZM33.469,29.039 C33.469,29.853 34.131,30.516 34.945,30.516 C35.759,30.516 36.422,29.853 36.422,29.039 L36.422,24.117 C36.422,23.303 35.759,22.641 34.945,22.641 C34.131,22.641 33.469,23.303 33.469,24.117 L33.469,29.039 ZM35.438,39.375 L35.438,48.234 L33.469,48.234 L33.469,46.266 L31.500,46.266 L31.500,48.234 L29.531,48.234 L29.531,39.375 C29.531,37.747 30.856,36.422 32.484,36.422 C34.113,36.422 35.438,37.747 35.438,39.375 ZM31.500,39.375 L31.500,44.297 L33.469,44.297 L33.469,39.375 C33.469,38.831 33.028,38.391 32.484,38.391 C31.942,38.391 31.500,38.831 31.500,39.375 ZM27.070,20.672 C28.970,20.672 30.516,22.217 30.516,24.117 L30.516,29.039 C30.516,30.939 28.970,32.484 27.070,32.484 C25.170,32.484 23.625,30.939 23.625,29.039 L23.625,24.117 C23.625,22.217 25.170,20.672 27.070,20.672 ZM25.594,29.039 C25.594,29.853 26.256,30.516 27.070,30.516 C27.884,30.516 28.547,29.853 28.547,29.039 L28.547,24.117 C28.547,23.303 27.884,22.641 27.070,22.641 C26.256,22.641 25.594,23.303 25.594,24.117 L25.594,29.039 ZM22.641,48.234 L22.641,42.331 C22.641,42.329 22.641,42.327 22.641,42.324 L22.641,37.406 C22.641,36.862 23.082,36.422 23.625,36.422 L25.102,36.422 C27.001,36.422 28.547,37.967 28.547,39.867 C28.547,41.584 27.285,43.011 25.639,43.270 L28.035,46.266 L28.547,46.266 L28.547,48.234 L27.563,48.234 C27.263,48.234 26.981,48.099 26.794,47.865 L24.609,45.135 L24.609,48.234 L22.641,48.234 ZM25.102,41.344 C25.916,41.344 26.578,40.681 26.578,39.867 C26.578,39.053 25.916,38.391 25.102,38.391 L24.609,38.391 L24.609,41.344 L25.102,41.344 ZM45.281,48.234 L45.281,38.391 L43.312,38.391 L43.312,36.422 L49.219,36.422 L49.219,38.391 L47.250,38.391 L47.250,48.234 L45.281,48.234 ZM6.891,31.500 C6.891,17.930 17.930,6.891 31.500,6.891 C45.070,6.891 56.109,17.930 56.109,31.500 C56.109,32.491 56.043,33.526 55.910,34.575 L53.958,34.331 C54.080,33.363 54.141,32.409 54.141,31.500 C54.141,19.016 43.985,8.859 31.500,8.859 C19.016,8.859 8.859,19.016 8.859,31.500 C8.859,32.409 8.920,33.363 9.042,34.331 L7.088,34.575 C6.958,33.526 6.891,32.491 6.891,31.500 ZM14.766,36.422 L14.766,45.281 C14.766,46.909 13.441,48.234 11.812,48.234 C10.184,48.234 8.859,46.909 8.859,45.281 L8.859,36.422 L10.828,36.422 L10.828,45.281 C10.828,45.825 11.270,46.266 11.812,46.266 C12.355,46.266 12.797,45.825 12.797,45.281 L12.797,36.422 L14.766,36.422 ZM9.444,49.730 C10.368,50.012 11.323,50.304 12.009,50.990 C12.695,51.675 12.987,52.631 13.269,53.554 C13.502,54.315 13.742,55.101 14.141,55.392 C14.535,55.680 15.355,55.664 16.149,55.654 C17.115,55.637 18.117,55.621 18.986,56.064 C19.843,56.502 20.412,57.316 20.963,58.105 C21.421,58.760 21.896,59.439 22.371,59.593 C22.829,59.743 23.598,59.476 24.344,59.219 C25.263,58.903 26.217,58.581 27.185,58.727 C28.128,58.877 28.918,59.471 29.681,60.046 C30.325,60.530 30.989,61.031 31.500,61.031 C32.011,61.031 32.675,60.530 33.318,60.046 C34.081,59.471 34.870,58.875 35.815,58.727 C36.784,58.581 37.736,58.903 38.655,59.219 C39.402,59.477 40.171,59.743 40.628,59.593 C41.105,59.438 41.578,58.760 42.037,58.105 C42.587,57.317 43.156,56.503 44.013,56.065 C44.884,55.622 45.884,55.638 46.852,55.654 C47.640,55.665 48.465,55.679 48.858,55.393 C49.258,55.102 49.498,54.316 49.730,53.555 C50.012,52.632 50.304,51.676 50.990,50.991 C51.675,50.304 52.631,50.013 53.554,49.732 C54.315,49.498 55.102,49.259 55.391,48.862 L56.983,50.019 C56.305,50.950 55.148,51.305 54.127,51.616 C53.435,51.826 52.719,52.045 52.381,52.384 C52.042,52.721 51.823,53.439 51.612,54.131 C51.301,55.152 50.947,56.308 50.017,56.986 C49.089,57.660 47.877,57.639 46.819,57.622 C46.090,57.609 45.340,57.597 44.909,57.818 C44.490,58.033 44.063,58.643 43.650,59.233 C43.036,60.112 42.340,61.109 41.236,61.466 C40.157,61.819 39.020,61.427 38.016,61.080 C37.324,60.842 36.602,60.588 36.122,60.673 C35.664,60.744 35.073,61.189 34.503,61.619 C33.644,62.266 32.669,63.000 31.500,63.000 C30.331,63.000 29.356,62.266 28.497,61.618 C27.927,61.188 27.337,60.743 26.879,60.672 C26.394,60.588 25.677,60.842 24.985,61.080 C23.982,61.426 22.845,61.814 21.764,61.465 C20.660,61.106 19.964,60.111 19.350,59.232 C18.937,58.641 18.511,58.031 18.091,57.816 C17.660,57.597 16.907,57.613 16.181,57.620 C15.115,57.637 13.908,57.660 12.982,56.983 C12.051,56.306 11.697,55.150 11.386,54.129 C11.175,53.436 10.956,52.720 10.617,52.382 C10.279,52.043 9.562,51.824 8.869,51.613 C7.849,51.302 6.692,50.948 6.015,50.018 L7.606,48.858 C7.896,49.258 8.683,49.498 9.444,49.730 ZM56.109,47.250 L56.109,37.406 C56.109,36.862 56.549,36.422 57.094,36.422 L61.031,36.422 L61.031,38.391 L58.078,38.391 L58.078,41.344 L61.031,41.344 L61.031,43.312 L58.078,43.312 L58.078,46.266 L61.031,46.266 L61.031,48.234 L57.094,48.234 C56.549,48.234 56.109,47.794 56.109,47.250 Z" />
</svg>