<svg xmlns="http://www.w3.org/2000/svg" xmlns:xlink="http://www.w3.org/1999/xlink" width="28px" height="26px">
    <path fill-rule="evenodd" fill="rgb(182, 182, 182)"
        d="M27.958,7.751 C27.549,3.257 24.364,-0.004 20.377,-0.004 C17.722,-0.004 15.290,1.423 13.922,3.711 C12.566,1.394 10.234,-0.004 7.621,-0.004 C3.635,-0.004 0.449,3.256 0.041,7.750 C0.009,7.949 -0.124,8.993 0.279,10.697 C0.860,13.155 2.201,15.390 4.157,17.160 L13.915,26.003 L23.841,17.160 C25.797,15.390 27.139,13.155 27.719,10.697 C28.122,8.994 27.990,7.949 27.958,7.751 ZM26.670,10.451 C26.140,12.695 24.912,14.740 23.120,16.360 L13.922,24.556 L4.881,16.363 C3.087,14.739 1.858,12.695 1.328,10.450 C0.946,8.838 1.103,7.927 1.104,7.921 L1.112,7.867 C1.462,3.930 4.199,1.071 7.621,1.071 C10.146,1.071 12.368,2.621 13.423,5.114 L13.919,6.289 L14.415,5.114 C15.453,2.659 17.793,1.072 20.378,1.072 C23.799,1.072 26.537,3.930 26.894,7.919 C26.895,7.927 27.052,8.838 26.670,10.451 Z" />
</svg>