<svg xmlns="http://www.w3.org/2000/svg" xmlns:xlink="http://www.w3.org/1999/xlink" width="48px" height="48px">
    <path fill-rule="evenodd" fill="rgb(147, 118, 223)"
        d="M4.800,23.998 C4.800,21.980 6.415,20.338 8.400,20.338 C10.385,20.338 12.000,21.980 12.000,23.998 C12.000,26.017 10.385,27.659 8.400,27.659 C6.415,27.659 4.800,26.017 4.800,23.998 ZM10.400,23.998 C10.400,22.877 9.503,21.965 8.400,21.965 C7.297,21.965 6.400,22.877 6.400,23.998 C6.400,25.120 7.297,26.032 8.400,26.032 C9.503,26.032 10.400,25.120 10.400,23.998 ZM26.400,22.778 C26.400,22.329 26.758,21.965 27.200,21.965 C27.642,21.965 28.000,22.329 28.000,22.778 C28.000,23.227 27.642,23.592 27.200,23.592 C26.758,23.592 26.400,23.227 26.400,22.778 ZM4.800,39.455 C4.800,37.437 6.415,35.794 8.400,35.794 C10.385,35.794 12.000,37.437 12.000,39.455 C12.000,41.473 10.385,43.116 8.400,43.116 C6.415,43.116 4.800,41.473 4.800,39.455 ZM10.400,39.455 C10.400,38.333 9.503,37.421 8.400,37.421 C7.297,37.421 6.400,38.333 6.400,39.455 C6.400,40.577 7.297,41.489 8.400,41.489 C9.503,41.489 10.400,40.577 10.400,39.455 ZM46.578,16.270 C47.437,16.957 47.999,18.010 47.999,19.205 L47.999,30.913 L46.399,30.913 L46.399,19.205 C46.399,18.035 45.463,17.084 44.313,17.084 L3.686,17.084 C2.536,17.084 1.600,18.035 1.600,19.205 L1.600,28.792 C1.600,29.961 2.536,30.913 3.686,30.913 L30.400,30.913 L30.400,32.540 L3.686,32.540 C2.536,32.540 1.600,33.492 1.600,34.662 L1.600,44.248 C1.600,45.418 2.536,46.370 3.686,46.370 L22.400,46.370 L22.400,47.997 L3.686,47.997 C1.654,47.997 0.000,46.315 0.000,44.248 L0.000,34.662 C0.000,33.468 0.562,32.414 1.422,31.727 C0.562,31.040 0.000,29.987 0.000,28.792 L0.000,19.205 C0.000,18.011 0.562,16.958 1.422,16.270 C0.562,15.583 0.000,14.530 0.000,13.335 L0.000,3.749 C0.000,1.681 1.654,0.000 3.686,0.000 L44.314,0.000 C46.346,0.000 48.000,1.681 48.000,3.749 L48.000,13.335 C48.000,14.529 47.438,15.583 46.578,16.270 ZM46.400,3.749 C46.400,2.579 45.464,1.627 44.313,1.627 L3.686,1.627 C2.536,1.627 1.600,2.579 1.600,3.749 L1.600,13.335 C1.600,14.505 2.536,15.457 3.686,15.457 L44.314,15.457 C45.464,15.457 46.400,14.505 46.400,13.335 L46.400,3.749 ZM41.600,10.576 C41.158,10.576 40.800,10.211 40.800,9.762 C40.800,9.313 41.158,8.948 41.600,8.948 C42.042,8.948 42.400,9.313 42.400,9.762 C42.400,10.211 42.042,10.576 41.600,10.576 ZM40.000,8.135 C39.558,8.135 39.200,7.771 39.200,7.321 C39.200,6.872 39.558,6.508 40.000,6.508 C40.442,6.508 40.800,6.872 40.800,7.321 C40.800,7.771 40.442,8.135 40.000,8.135 ZM38.400,10.576 C37.958,10.576 37.600,10.211 37.600,9.762 C37.600,9.313 37.958,8.948 38.400,8.948 C38.842,8.948 39.200,9.313 39.200,9.762 C39.200,10.211 38.842,10.576 38.400,10.576 ZM36.800,8.135 C36.358,8.135 36.000,7.771 36.000,7.321 C36.000,6.872 36.358,6.508 36.800,6.508 C37.242,6.508 37.600,6.872 37.600,7.321 C37.600,7.771 37.242,8.135 36.800,8.135 ZM35.200,10.576 C34.758,10.576 34.400,10.211 34.400,9.762 C34.400,9.313 34.758,8.948 35.200,8.948 C35.642,8.948 36.000,9.313 36.000,9.762 C36.000,10.211 35.642,10.576 35.200,10.576 ZM33.600,8.135 C33.158,8.135 32.800,7.771 32.800,7.321 C32.800,6.872 33.158,6.508 33.600,6.508 C34.042,6.508 34.400,6.872 34.400,7.321 C34.400,7.771 34.042,8.135 33.600,8.135 ZM32.000,10.576 C31.558,10.576 31.200,10.211 31.200,9.762 C31.200,9.313 31.558,8.948 32.000,8.948 C32.442,8.948 32.800,9.313 32.800,9.762 C32.800,10.211 32.442,10.576 32.000,10.576 ZM30.400,8.135 C29.958,8.135 29.600,7.771 29.600,7.321 C29.600,6.872 29.958,6.508 30.400,6.508 C30.842,6.508 31.200,6.872 31.200,7.321 C31.200,7.771 30.842,8.135 30.400,8.135 ZM28.800,10.576 C28.358,10.576 28.000,10.211 28.000,9.762 C28.000,9.313 28.358,8.948 28.800,8.948 C29.242,8.948 29.600,9.313 29.600,9.762 C29.600,10.211 29.242,10.576 28.800,10.576 ZM27.200,8.135 C26.758,8.135 26.400,7.771 26.400,7.321 C26.400,6.872 26.758,6.508 27.200,6.508 C27.642,6.508 28.000,6.872 28.000,7.321 C28.000,7.771 27.642,8.135 27.200,8.135 ZM8.400,12.202 C6.415,12.202 4.800,10.560 4.800,8.542 C4.800,6.523 6.415,4.881 8.400,4.881 C10.385,4.881 12.000,6.523 12.000,8.542 C12.000,10.560 10.385,12.202 8.400,12.202 ZM8.400,6.508 C7.297,6.508 6.400,7.420 6.400,8.542 C6.400,9.663 7.297,10.576 8.400,10.576 C9.503,10.576 10.400,9.663 10.400,8.542 C10.400,7.420 9.503,6.508 8.400,6.508 ZM28.800,26.032 C28.358,26.032 28.000,25.668 28.000,25.219 C28.000,24.769 28.358,24.405 28.800,24.405 C29.242,24.405 29.600,24.769 29.600,25.219 C29.600,25.668 29.242,26.032 28.800,26.032 ZM30.400,21.965 C30.842,21.965 31.200,22.329 31.200,22.778 C31.200,23.227 30.842,23.592 30.400,23.592 C29.958,23.592 29.600,23.227 29.600,22.778 C29.600,22.329 29.958,21.965 30.400,21.965 ZM32.000,26.032 C31.558,26.032 31.200,25.668 31.200,25.219 C31.200,24.769 31.558,24.405 32.000,24.405 C32.442,24.405 32.800,24.769 32.800,25.219 C32.800,25.668 32.442,26.032 32.000,26.032 ZM33.600,21.965 C34.042,21.965 34.400,22.329 34.400,22.778 C34.400,23.227 34.042,23.592 33.600,23.592 C33.158,23.592 32.800,23.227 32.800,22.778 C32.800,22.329 33.158,21.965 33.600,21.965 ZM35.200,26.032 C34.758,26.032 34.400,25.668 34.400,25.219 C34.400,24.769 34.758,24.405 35.200,24.405 C35.642,24.405 36.000,24.769 36.000,25.219 C36.000,25.668 35.642,26.032 35.200,26.032 ZM36.800,21.965 C37.242,21.965 37.600,22.329 37.600,22.778 C37.600,23.227 37.242,23.592 36.800,23.592 C36.358,23.592 36.000,23.227 36.000,22.778 C36.000,22.329 36.358,21.965 36.800,21.965 ZM38.400,26.032 C37.958,26.032 37.600,25.668 37.600,25.219 C37.600,24.769 37.958,24.405 38.400,24.405 C38.842,24.405 39.200,24.769 39.200,25.219 C39.200,25.668 38.842,26.032 38.400,26.032 ZM40.000,21.965 C40.442,21.965 40.800,22.329 40.800,22.778 C40.800,23.227 40.442,23.592 40.000,23.592 C39.558,23.592 39.200,23.227 39.200,22.778 C39.200,22.329 39.558,21.965 40.000,21.965 ZM40.800,25.219 C40.800,24.769 41.158,24.405 41.600,24.405 C42.042,24.405 42.400,24.769 42.400,25.219 C42.400,25.668 42.042,26.032 41.600,26.032 C41.158,26.032 40.800,25.668 40.800,25.219 ZM28.374,38.351 C28.922,36.532 30.570,35.249 32.426,35.249 C32.664,35.249 32.900,35.269 33.133,35.311 C34.330,33.590 36.266,32.544 38.317,32.544 C41.598,32.544 44.336,35.167 44.679,38.508 C46.566,39.164 47.880,41.013 47.881,43.128 C47.881,45.814 45.782,48.000 43.202,48.000 L39.754,48.000 C39.702,48.000 39.653,47.997 39.603,47.994 C39.561,47.997 39.514,48.000 39.466,48.000 L30.847,48.000 C28.109,48.000 25.881,45.680 25.881,42.827 C25.881,40.988 26.848,39.271 28.374,38.351 ZM30.846,46.373 L39.583,46.366 L39.719,46.371 L43.201,46.373 C44.898,46.373 46.280,44.917 46.279,43.127 C46.279,41.568 45.221,40.227 43.762,39.939 L43.123,39.813 L43.114,39.151 C43.080,36.405 40.928,34.170 38.316,34.170 C36.609,34.170 35.066,35.096 34.190,36.647 L33.863,37.225 L33.242,37.013 C32.976,36.923 32.702,36.876 32.426,36.876 C31.194,36.876 30.107,37.796 29.842,39.065 L29.761,39.452 L29.413,39.626 C28.238,40.216 27.479,41.473 27.479,42.827 C27.479,44.782 28.990,46.373 30.846,46.373 Z" />
</svg>