<svg xmlns="http://www.w3.org/2000/svg" xmlns:xlink="http://www.w3.org/1999/xlink" width="22px" height="25px">
    <path fill-rule="evenodd" fill="rgb(63, 195, 128)"
        d="M11.299,24.952 C11.202,24.984 11.101,25.000 11.000,25.000 C10.898,25.000 10.797,24.984 10.700,24.952 C-0.249,21.320 -0.077,12.715 0.049,6.432 C0.062,5.756 0.075,5.118 0.075,4.501 C0.075,4.018 0.484,3.626 0.990,3.626 C4.901,3.626 7.879,2.550 10.362,0.240 C10.717,-0.091 11.282,-0.091 11.637,0.240 C14.120,2.550 17.099,3.626 21.011,3.626 C21.516,3.626 21.925,4.018 21.925,4.501 C21.925,5.118 21.938,5.756 21.952,6.431 C22.077,12.714 22.249,21.320 11.299,24.952 ZM20.123,6.464 C20.115,6.086 20.108,5.718 20.103,5.358 C16.439,5.210 13.508,4.148 11.000,2.057 C8.492,4.148 5.562,5.210 1.898,5.358 C1.893,5.719 1.885,6.086 1.878,6.465 C1.752,12.781 1.610,19.932 11.000,23.196 C20.390,19.931 20.248,12.781 20.123,6.464 ZM10.381,15.537 C10.203,15.708 9.969,15.793 9.735,15.793 C9.501,15.793 9.266,15.708 9.088,15.537 L6.557,13.115 C6.200,12.773 6.200,12.219 6.557,11.877 C6.914,11.535 7.493,11.535 7.851,11.877 L9.735,13.680 L14.150,9.455 C14.507,9.113 15.086,9.113 15.443,9.455 C15.801,9.797 15.801,10.351 15.443,10.693 L10.381,15.537 Z" />
</svg>