<svg xmlns="http://www.w3.org/2000/svg" xmlns:xlink="http://www.w3.org/1999/xlink" width="62px" height="49px">
    <path fill-rule="evenodd" fill="rgb(147, 118, 223)"
        d="M60.421,33.829 L59.896,34.137 C60.013,34.748 60.072,35.360 60.072,35.965 C60.072,36.570 60.013,37.181 59.896,37.792 L60.421,38.100 C61.930,38.985 62.448,40.950 61.578,42.482 C60.707,44.013 58.771,44.540 57.263,43.656 L56.740,43.349 C55.824,44.150 54.766,44.769 53.621,45.173 L53.621,45.792 C53.621,47.560 52.204,48.999 50.463,48.999 C48.721,48.999 47.305,47.560 47.305,45.792 L47.305,45.173 C46.159,44.769 45.101,44.150 44.186,43.349 L43.662,43.656 C42.154,44.540 40.219,44.013 39.348,42.482 C38.478,40.950 38.996,38.985 40.504,38.100 L41.030,37.792 C40.913,37.181 40.854,36.569 40.854,35.965 C40.854,35.360 40.913,34.748 41.030,34.137 L40.504,33.829 C38.996,32.944 38.478,30.979 39.348,29.447 C39.770,28.706 40.451,28.175 41.266,27.953 C42.081,27.731 42.932,27.845 43.662,28.274 L44.186,28.581 C45.101,27.779 46.159,27.161 47.305,26.757 L47.305,26.138 C47.305,24.369 48.721,22.930 50.463,22.930 C52.204,22.930 53.621,24.369 53.621,26.138 L53.621,26.757 C54.766,27.161 55.824,27.779 56.740,28.581 L57.263,28.274 C58.771,27.389 60.707,27.916 61.578,29.447 C62.448,30.979 61.930,32.945 60.421,33.829 ZM59.832,30.471 C59.517,29.917 58.817,29.726 58.271,30.046 L57.101,30.733 C56.703,30.966 56.200,30.896 55.878,30.563 C54.915,29.568 53.700,28.857 52.361,28.507 C51.916,28.390 51.605,27.983 51.605,27.516 L51.605,26.137 C51.605,25.498 51.093,24.977 50.463,24.977 C49.833,24.977 49.321,25.498 49.321,26.137 L49.321,27.516 C49.321,27.983 49.010,28.390 48.564,28.507 C47.226,28.857 46.010,29.568 45.048,30.563 C44.726,30.896 44.223,30.966 43.825,30.733 L42.654,30.046 C42.390,29.891 42.082,29.850 41.787,29.930 C41.493,30.010 41.247,30.203 41.094,30.471 C40.779,31.025 40.966,31.736 41.512,32.056 L42.686,32.744 C43.084,32.977 43.276,33.454 43.153,33.904 C42.965,34.593 42.870,35.287 42.870,35.965 C42.870,36.643 42.965,37.336 43.153,38.025 C43.276,38.475 43.084,38.952 42.686,39.185 L41.512,39.873 C40.967,40.193 40.779,40.904 41.094,41.458 C41.409,42.012 42.109,42.203 42.654,41.883 L43.825,41.196 C43.982,41.104 44.156,41.059 44.328,41.059 C44.592,41.059 44.853,41.164 45.048,41.366 C46.010,42.360 47.226,43.072 48.564,43.422 C49.010,43.539 49.321,43.946 49.321,44.413 L49.321,45.791 C49.321,46.431 49.833,46.952 50.463,46.952 C51.093,46.952 51.605,46.431 51.605,45.791 L51.605,44.413 C51.605,43.946 51.916,43.539 52.361,43.422 C53.700,43.072 54.915,42.360 55.878,41.366 C56.200,41.033 56.703,40.963 57.101,41.196 L58.271,41.883 C58.817,42.202 59.517,42.012 59.832,41.458 C60.147,40.904 59.959,40.193 59.414,39.873 L58.240,39.185 C57.842,38.952 57.650,38.475 57.772,38.025 C57.961,37.336 58.056,36.643 58.056,35.964 C58.056,35.286 57.961,34.593 57.772,33.904 C57.650,33.454 57.842,32.977 58.240,32.744 L59.414,32.056 C59.959,31.736 60.147,31.025 59.832,30.471 ZM50.463,40.264 C48.129,40.264 46.230,38.335 46.230,35.965 C46.230,33.594 48.129,31.665 50.463,31.665 C52.797,31.665 54.696,33.594 54.696,35.965 C54.696,38.335 52.797,40.264 50.463,40.264 ZM50.463,33.713 C49.240,33.713 48.245,34.723 48.245,35.965 C48.245,37.206 49.240,38.217 50.463,38.217 C51.685,38.217 52.680,37.206 52.680,35.965 C52.680,34.723 51.685,33.713 50.463,33.713 ZM39.712,26.070 L38.041,26.070 C37.638,27.678 37.010,29.213 36.166,30.651 L37.352,31.856 C38.583,33.106 38.583,35.141 37.352,36.392 L35.831,37.936 C34.600,39.186 32.596,39.186 31.365,37.936 L30.179,36.731 C28.764,37.588 27.252,38.226 25.668,38.636 L25.668,40.332 C25.668,42.101 24.251,43.540 22.510,43.540 L20.360,43.540 C18.618,43.540 17.202,42.101 17.202,40.332 L17.202,38.636 C15.618,38.226 14.106,37.588 12.691,36.731 L11.505,37.936 C10.273,39.186 8.270,39.186 7.038,37.936 L5.518,36.391 C4.287,35.141 4.287,33.106 5.518,31.855 L6.704,30.651 C5.860,29.213 5.232,27.678 4.829,26.070 L3.158,26.070 C1.417,26.070 0.000,24.631 0.000,22.862 L0.000,20.678 C0.000,18.910 1.417,17.471 3.158,17.471 L4.829,17.471 C5.232,15.862 5.860,14.327 6.704,12.890 L5.518,11.685 C4.287,10.435 4.287,8.400 5.518,7.149 L7.039,5.605 C7.635,4.999 8.428,4.666 9.272,4.666 C10.115,4.666 10.908,4.999 11.505,5.605 L12.691,6.809 C14.106,5.952 15.618,5.314 17.202,4.905 L17.202,3.208 C17.202,1.440 18.619,0.001 20.360,0.001 L22.510,0.001 C24.252,0.001 25.668,1.440 25.668,3.208 L25.668,4.905 C27.252,5.314 28.764,5.953 30.180,6.810 L31.365,5.605 C31.962,4.999 32.755,4.666 33.598,4.666 C34.442,4.666 35.235,4.999 35.832,5.605 L37.352,7.149 C38.583,8.400 38.583,10.435 37.352,11.685 L36.166,12.890 C37.010,14.327 37.638,15.862 38.041,17.471 L39.712,17.471 C41.453,17.471 42.870,18.910 42.870,20.678 L42.870,22.862 C42.870,24.631 41.453,26.070 39.712,26.070 ZM40.854,20.678 C40.854,20.039 40.342,19.518 39.712,19.518 L37.238,19.518 C36.758,19.518 36.345,19.175 36.250,18.698 C35.866,16.777 35.124,14.963 34.045,13.308 C33.780,12.902 33.833,12.363 34.172,12.019 L35.927,10.237 C36.372,9.785 36.372,9.049 35.927,8.597 L34.406,7.053 C34.190,6.834 33.904,6.713 33.598,6.713 C33.293,6.713 33.007,6.834 32.791,7.053 L31.036,8.834 C30.698,9.178 30.167,9.233 29.767,8.964 C28.137,7.868 26.352,7.114 24.460,6.724 C23.990,6.627 23.652,6.208 23.652,5.721 L23.652,3.208 C23.652,2.569 23.140,2.048 22.510,2.048 L20.360,2.048 C19.730,2.048 19.218,2.569 19.218,3.208 L19.218,5.721 C19.218,6.208 18.880,6.627 18.410,6.724 C16.518,7.114 14.733,7.868 13.103,8.964 C12.703,9.233 12.173,9.178 11.834,8.834 L10.079,7.052 C9.864,6.833 9.577,6.713 9.271,6.713 C8.966,6.713 8.679,6.834 8.464,7.052 L6.944,8.597 C6.498,9.049 6.498,9.785 6.944,10.237 L8.698,12.019 C9.037,12.363 9.090,12.902 8.825,13.308 C7.746,14.963 7.004,16.777 6.620,18.698 C6.525,19.175 6.112,19.518 5.632,19.518 L3.158,19.518 C2.528,19.518 2.016,20.039 2.016,20.678 L2.016,22.862 C2.016,23.502 2.528,24.022 3.158,24.022 L5.632,24.022 C6.112,24.022 6.525,24.365 6.620,24.842 C7.004,26.764 7.746,28.577 8.825,30.232 C9.090,30.638 9.037,31.177 8.698,31.521 L6.944,33.303 C6.498,33.755 6.498,34.491 6.944,34.944 L8.464,36.488 C8.909,36.940 9.634,36.940 10.079,36.488 L11.833,34.706 C12.028,34.508 12.286,34.406 12.547,34.406 C12.739,34.406 12.933,34.462 13.103,34.577 C14.733,35.673 16.518,36.426 18.410,36.816 C18.880,36.913 19.218,37.333 19.218,37.819 L19.218,40.332 C19.218,40.972 19.730,41.492 20.360,41.492 L22.510,41.492 C23.140,41.492 23.652,40.972 23.652,40.332 L23.652,37.819 C23.652,37.333 23.990,36.913 24.460,36.816 C26.352,36.426 28.137,35.673 29.767,34.577 C30.167,34.308 30.697,34.362 31.036,34.706 L32.791,36.488 C33.236,36.940 33.961,36.940 34.406,36.488 L35.927,34.944 C36.372,34.491 36.372,33.755 35.927,33.303 L34.172,31.521 C33.833,31.177 33.780,30.638 34.045,30.232 C35.124,28.577 35.866,26.764 36.250,24.842 C36.345,24.365 36.758,24.022 37.238,24.022 L39.712,24.022 C40.342,24.022 40.854,23.502 40.854,22.862 L40.854,20.678 ZM32.817,26.070 C32.726,26.070 32.633,26.058 32.542,26.031 C32.006,25.877 31.695,25.312 31.846,24.768 C32.116,23.797 32.253,22.789 32.253,21.770 C32.253,18.953 31.205,16.274 29.301,14.227 C28.919,13.816 28.937,13.169 29.342,12.780 C29.746,12.392 30.384,12.410 30.766,12.821 C33.025,15.250 34.269,18.428 34.269,21.770 C34.269,22.977 34.107,24.173 33.786,25.325 C33.660,25.775 33.256,26.070 32.817,26.070 ZM26.810,12.093 C26.656,12.093 26.499,12.057 26.352,11.981 C25.723,11.654 25.060,11.390 24.381,11.195 C23.845,11.042 23.534,10.476 23.685,9.932 C23.837,9.388 24.393,9.072 24.929,9.225 C25.735,9.456 26.523,9.770 27.270,10.158 C27.766,10.415 27.962,11.032 27.709,11.536 C27.530,11.890 27.177,12.093 26.810,12.093 ZM29.969,21.770 C29.969,26.549 26.140,30.437 21.435,30.437 C16.729,30.437 12.901,26.549 12.901,21.770 C12.901,16.991 16.729,13.104 21.435,13.104 C26.140,13.104 29.969,16.991 29.969,21.770 ZM21.435,15.151 C17.841,15.151 14.917,18.120 14.917,21.770 C14.917,25.420 17.841,28.390 21.435,28.390 C25.029,28.390 27.953,25.420 27.953,21.770 C27.953,18.120 25.029,15.151 21.435,15.151 ZM19.466,32.576 C20.014,32.678 20.376,33.212 20.275,33.768 C20.186,34.261 19.762,34.607 19.285,34.607 C19.225,34.607 19.164,34.601 19.102,34.590 C13.903,33.619 9.768,29.419 8.813,24.139 C8.712,23.583 9.074,23.049 9.622,22.947 C10.168,22.845 10.695,23.213 10.795,23.769 C11.600,28.219 15.085,31.758 19.466,32.576 ZM10.795,19.772 C10.706,20.265 10.282,20.611 9.805,20.611 C9.744,20.611 9.683,20.605 9.622,20.594 C9.074,20.492 8.712,19.958 8.812,19.402 C9.004,18.344 9.325,17.311 9.768,16.333 C10.000,15.820 10.599,15.595 11.104,15.831 C11.610,16.066 11.832,16.674 11.599,17.188 C11.227,18.011 10.956,18.881 10.795,19.772 Z" />
</svg>