<svg xmlns="http://www.w3.org/2000/svg" xmlns:xlink="http://www.w3.org/1999/xlink" width="46px" height="51px">
    <path fill-rule="evenodd" fill="rgb(147, 118, 223)"
        d="M43.588,51.000 L2.412,51.000 C1.083,51.000 0.000,49.920 0.000,48.593 L0.000,2.407 C0.000,1.080 1.083,-0.000 2.412,-0.000 L43.588,-0.000 C44.917,-0.000 46.000,1.080 46.000,2.407 L46.000,48.593 C46.000,49.920 44.917,51.000 43.588,51.000 ZM44.296,2.407 C44.296,2.017 43.979,1.700 43.588,1.700 L2.412,1.700 C2.021,1.700 1.704,2.017 1.704,2.407 L1.704,24.650 L44.296,24.650 L44.296,2.407 ZM44.296,26.350 L1.704,26.350 L1.704,48.593 C1.704,48.983 2.021,49.300 2.412,49.300 L43.588,49.300 C43.979,49.300 44.296,48.983 44.296,48.593 L44.296,26.350 ZM27.681,39.950 L18.319,39.950 C16.672,39.950 15.333,38.614 15.333,36.971 L15.333,35.700 C15.333,35.230 15.714,34.850 16.185,34.850 C16.656,34.850 17.037,35.230 17.037,35.700 L17.037,36.971 C17.037,37.676 17.612,38.250 18.319,38.250 L27.681,38.250 C28.388,38.250 28.963,37.676 28.963,36.971 L28.963,35.700 C28.963,35.230 29.344,34.850 29.815,34.850 C30.286,34.850 30.667,35.230 30.667,35.700 L30.667,36.971 C30.667,38.614 29.328,39.950 27.681,39.950 ZM16.185,10.200 C16.656,10.200 17.037,10.580 17.037,11.050 L17.037,12.321 C17.037,13.026 17.612,13.600 18.319,13.600 L27.681,13.600 C28.388,13.600 28.963,13.026 28.963,12.321 L28.963,11.050 C28.963,10.580 29.344,10.200 29.815,10.200 C30.286,10.200 30.667,10.580 30.667,11.050 L30.667,12.321 C30.667,13.964 29.328,15.300 27.681,15.300 L18.319,15.300 C16.672,15.300 15.333,13.964 15.333,12.321 L15.333,11.050 C15.333,10.580 15.714,10.200 16.185,10.200 Z" />
</svg>