<svg xmlns="http://www.w3.org/2000/svg" xmlns:xlink="http://www.w3.org/1999/xlink" width="50px" height="56px">
    <path fill-rule="evenodd" fill="rgb(147, 118, 223)"
        d="M27.681,9.930 L27.681,8.123 L29.468,8.123 L29.468,9.930 L27.681,9.930 ZM25.894,9.930 L24.106,9.930 L24.106,8.123 L25.894,8.123 L25.894,9.930 ZM46.447,37.848 L46.447,37.936 C46.447,40.107 44.911,41.937 42.873,42.355 L42.873,46.963 C42.873,50.456 40.061,53.289 36.617,53.289 L30.209,53.289 C29.708,54.843 27.975,56.000 25.905,56.000 C23.442,56.000 21.436,54.380 21.436,52.385 C21.436,50.390 23.442,48.770 25.905,48.770 C27.975,48.770 29.708,49.927 30.209,51.481 L36.617,51.481 C39.080,51.481 41.085,49.453 41.085,46.963 L41.085,42.444 L37.511,42.444 L37.511,24.379 L41.979,24.379 C43.450,24.379 44.736,25.107 45.554,26.209 L45.554,22.572 C45.554,11.110 36.345,1.797 25.011,1.797 C13.677,1.797 4.468,11.121 4.468,22.572 L4.468,26.209 C5.286,25.107 6.582,24.379 8.043,24.379 L12.511,24.379 L12.511,42.433 L8.043,42.433 C5.580,42.433 3.575,40.405 3.575,37.914 L3.575,37.826 C1.537,37.407 0.000,35.588 0.000,33.406 C0.000,31.554 1.112,29.967 2.681,29.273 L2.681,22.572 C2.681,10.129 12.696,-0.000 25.000,-0.000 C37.304,-0.000 47.319,10.129 47.319,22.583 L47.319,29.284 C48.899,29.978 50.000,31.566 50.000,33.417 C50.000,35.588 48.463,37.418 46.447,37.848 ZM25.894,50.566 C24.444,50.566 23.213,51.393 23.213,52.374 C23.213,53.355 24.444,54.181 25.894,54.181 C27.343,54.181 28.575,53.355 28.575,52.374 C28.575,51.393 27.343,50.566 25.894,50.566 ZM44.649,28.898 C44.649,27.399 43.450,26.187 41.968,26.187 L39.287,26.187 L39.287,40.636 L41.968,40.636 C43.450,40.636 44.649,39.424 44.649,37.925 L44.649,28.898 ZM5.351,37.925 C5.351,39.424 6.550,40.636 8.032,40.636 L10.713,40.636 L10.713,26.187 L8.032,26.187 C6.550,26.187 5.351,27.399 5.351,28.898 L5.351,37.925 ZM3.575,30.871 C2.539,31.246 1.787,32.238 1.787,33.417 C1.787,34.585 2.528,35.577 3.575,35.952 L3.575,30.871 ZM46.425,30.871 L46.425,35.952 C47.472,35.577 48.213,34.596 48.213,33.417 C48.213,32.238 47.461,31.246 46.425,30.871 ZM22.319,9.930 L20.532,9.930 L20.532,8.123 L22.319,8.123 L22.319,9.930 Z" />
</svg>